<?xml version="1.0" encoding="UTF-8" standalone="no"?>
<!DOCTYPE svg PUBLIC "-//W3C//DTD SVG 1.1//EN"
 "http://www.w3.org/Graphics/SVG/1.1/DTD/svg11.dtd">
<!-- Generated by graphviz version 5.0.1 (20220820.1526)
 -->
<!-- Title: state transitions Pages: 1 -->
<svg width="387pt" height="407pt"
 viewBox="0.00 0.00 386.50 407.00" xmlns="http://www.w3.org/2000/svg" xmlns:xlink="http://www.w3.org/1999/xlink">
<g id="graph0" class="graph" transform="scale(1 1) rotate(0) translate(4 403)">
<title>state transitions</title>
<polygon fill="white" stroke="none" points="-4,4 -4,-403 382.5,-403 382.5,4 -4,4"/>
<!-- initial -->
<g id="node1" class="node state initial">
<title>initial</title>
<ellipse fill="black" stroke="black" stroke-width="2" cx="221.5" cy="-393.5" rx="5.5" ry="5.5"/>
</g>
<!-- idle -->
<g id="node2" class="node state regular">
<title>idle</title>
<polygon fill="#ffffff" fill-opacity="0.003922" stroke="none" stroke-width="2" points="249.5,-361 193.5,-361 193.5,-325 249.5,-325 249.5,-361"/>
<text text-anchor="start" x="211.5" y="-339.4" font-family="Helvetica,sans-Serif" font-size="12.00">idle</text>
<path fill="none" stroke="black" stroke-width="2" d="M205.5,-326.5C205.5,-326.5 237.5,-326.5 237.5,-326.5 243,-326.5 248.5,-332 248.5,-337.5 248.5,-337.5 248.5,-348.5 248.5,-348.5 248.5,-354 243,-359.5 237.5,-359.5 237.5,-359.5 205.5,-359.5 205.5,-359.5 200,-359.5 194.5,-354 194.5,-348.5 194.5,-348.5 194.5,-337.5 194.5,-337.5 194.5,-332 200,-326.5 205.5,-326.5"/>
</g>
<!-- initial&#45;&gt;idle -->
<g id="edge1" class="edge transition">
<title>initial&#45;&gt;idle</title>
<path fill="none" stroke="black" d="M221.5,-387.67C221.5,-383.74 221.5,-377.85 221.5,-371.65"/>
<polygon fill="black" stroke="black" points="225,-371.24 221.5,-361.24 218,-371.24 225,-371.24"/>
<text text-anchor="middle" x="223.5" y="-372" font-family="Helvetica,sans-Serif" font-size="10.00"> </text>
</g>
<!-- busy -->
<g id="node3" class="node state regular">
<title>busy</title>
<polygon fill="#ffffff" fill-opacity="0.003922" stroke="none" stroke-width="2" points="234.5,-298 82.5,-298 82.5,-235 234.5,-235 234.5,-298"/>
<text text-anchor="start" x="145.5" y="-281.9" font-family="Helvetica,sans-Serif" font-size="12.00">busy</text>
<text text-anchor="start" x="88.5" y="-262.9" font-family="Helvetica,sans-Serif" font-size="12.00">entry/ progress = 0</text>
<text text-anchor="start" x="88.5" y="-243.9" font-family="Helvetica,sans-Serif" font-size="12.00">do/ &#160;&#160;&#160;&#160;increment progresss</text>
<polygon fill="black" stroke="black" points="82.5,-275.5 82.5,-275.5 234.5,-275.5 234.5,-275.5 82.5,-275.5"/>
<path fill="none" stroke="black" stroke-width="2" d="M95.5,-236C95.5,-236 221.5,-236 221.5,-236 227.5,-236 233.5,-242 233.5,-248 233.5,-248 233.5,-285 233.5,-285 233.5,-291 227.5,-297 221.5,-297 221.5,-297 95.5,-297 95.5,-297 89.5,-297 83.5,-291 83.5,-285 83.5,-285 83.5,-248 83.5,-248 83.5,-242 89.5,-236 95.5,-236"/>
</g>
<!-- idle&#45;&gt;busy -->
<g id="edge2" class="edge transition">
<title>idle&#45;&gt;busy</title>
<path fill="none" stroke="black" d="M202.16,-324.96C199.5,-322.38 196.88,-319.67 194.5,-317 191.48,-313.6 188.47,-309.96 185.54,-306.24"/>
<polygon fill="black" stroke="black" points="188.15,-303.89 179.3,-298.07 182.58,-308.14 188.15,-303.89"/>
<text text-anchor="start" x="194.5" y="-309" font-family="Helvetica,sans-Serif" font-size="10.00">TASK_START &#160;&#160;</text>
</g>
<!-- done -->
<g id="node4" class="node state regular">
<title>done</title>
<polygon fill="#ffffff" fill-opacity="0.003922" stroke="none" stroke-width="2" points="186.5,-208 130.5,-208 130.5,-172 186.5,-172 186.5,-208"/>
<text text-anchor="start" x="144.5" y="-186.4" font-family="Helvetica,sans-Serif" font-size="12.00">done</text>
<path fill="none" stroke="black" stroke-width="2" d="M142.5,-173.5C142.5,-173.5 174.5,-173.5 174.5,-173.5 180,-173.5 185.5,-179 185.5,-184.5 185.5,-184.5 185.5,-195.5 185.5,-195.5 185.5,-201 180,-206.5 174.5,-206.5 174.5,-206.5 142.5,-206.5 142.5,-206.5 137,-206.5 131.5,-201 131.5,-195.5 131.5,-195.5 131.5,-184.5 131.5,-184.5 131.5,-179 137,-173.5 142.5,-173.5"/>
</g>
<!-- busy&#45;&gt;done -->
<g id="edge5" class="edge transition">
<title>busy&#45;&gt;done</title>
<path fill="none" stroke="black" d="M158.5,-234.77C158.5,-229.34 158.5,-223.73 158.5,-218.4"/>
<polygon fill="black" stroke="black" points="162,-218.02 158.5,-208.02 155,-218.02 162,-218.02"/>
<text text-anchor="start" x="158.5" y="-219" font-family="Helvetica,sans-Serif" font-size="10.00">TASK_DONE &#160;&#160;</text>
</g>
<!-- aborted -->
<g id="node5" class="node state regular">
<title>aborted</title>
<polygon fill="#ffffff" fill-opacity="0.003922" stroke="none" stroke-width="2" points="63,-208 0,-208 0,-172 63,-172 63,-208"/>
<text text-anchor="start" x="11.5" y="-186.4" font-family="Helvetica,sans-Serif" font-size="12.00">aborted</text>
<path fill="none" stroke="black" stroke-width="2" d="M12,-173.5C12,-173.5 51,-173.5 51,-173.5 56.5,-173.5 62,-179 62,-184.5 62,-184.5 62,-195.5 62,-195.5 62,-201 56.5,-206.5 51,-206.5 51,-206.5 12,-206.5 12,-206.5 6.5,-206.5 1,-201 1,-195.5 1,-195.5 1,-184.5 1,-184.5 1,-179 6.5,-173.5 12,-173.5"/>
</g>
<!-- busy&#45;&gt;aborted -->
<g id="edge3" class="edge transition">
<title>busy&#45;&gt;aborted</title>
<path fill="none" stroke="black" d="M92.01,-234.82C87.38,-232.28 82.83,-229.66 78.5,-227 72.38,-223.24 66.1,-218.85 60.2,-214.45"/>
<polygon fill="black" stroke="black" points="61.96,-211.39 51.9,-208.08 57.7,-216.95 61.96,-211.39"/>
<text text-anchor="start" x="78.5" y="-219" font-family="Helvetica,sans-Serif" font-size="10.00">TASK_ABORT &#160;&#160;</text>
</g>
<!-- awaiting_clearance -->
<g id="node6" class="node state regular">
<title>awaiting_clearance</title>
<polygon fill="#ffffff" fill-opacity="0.003922" stroke="none" stroke-width="2" points="222,-145 95,-145 95,-109 222,-109 222,-145"/>
<text text-anchor="start" x="106.5" y="-123.4" font-family="Helvetica,sans-Serif" font-size="12.00">awaiting_clearance</text>
<path fill="none" stroke="black" stroke-width="2" d="M107,-110.5C107,-110.5 210,-110.5 210,-110.5 215.5,-110.5 221,-116 221,-121.5 221,-121.5 221,-132.5 221,-132.5 221,-138 215.5,-143.5 210,-143.5 210,-143.5 107,-143.5 107,-143.5 101.5,-143.5 96,-138 96,-132.5 96,-132.5 96,-121.5 96,-121.5 96,-116 101.5,-110.5 107,-110.5"/>
</g>
<!-- done&#45;&gt;awaiting_clearance -->
<g id="edge6" class="edge transition">
<title>done&#45;&gt;awaiting_clearance</title>
<path fill="none" stroke="black" d="M158.5,-171.68C158.5,-166.62 158.5,-160.95 158.5,-155.42"/>
<polygon fill="black" stroke="black" points="162,-155.15 158.5,-145.15 155,-155.15 162,-155.15"/>
<text text-anchor="start" x="158.5" y="-156" font-family="Helvetica,sans-Serif" font-size="10.00">AWAIT_CLEARANCE &#160;&#160;</text>
</g>
<!-- aborted&#45;&gt;awaiting_clearance -->
<g id="edge4" class="edge transition">
<title>aborted&#45;&gt;awaiting_clearance</title>
<path fill="none" stroke="black" d="M34,-171.93C35.83,-165.14 39,-157.82 44.5,-153 51.28,-147.05 67.13,-142.22 84.92,-138.44"/>
<polygon fill="black" stroke="black" points="85.83,-141.83 94.96,-136.45 84.47,-134.96 85.83,-141.83"/>
<text text-anchor="start" x="44.5" y="-156" font-family="Helvetica,sans-Serif" font-size="10.00">AWAIT_CLEARANCE &#160;&#160;</text>
</g>
<!-- awaiting_clearance&#45;&gt;idle -->
<g id="edge7" class="edge transition">
<title>awaiting_clearance&#45;&gt;idle</title>
<path fill="none" stroke="black" d="M222.07,-135.56C242.8,-139.42 262.15,-145.04 268.5,-153 313.97,-209.97 306.04,-254.52 268.5,-317 265.96,-321.23 262.43,-324.79 258.43,-327.77"/>
<polygon fill="black" stroke="black" points="256.45,-324.88 249.75,-333.09 260.11,-330.84 256.45,-324.88"/>
<text text-anchor="start" x="300.5" y="-219" font-family="Helvetica,sans-Serif" font-size="10.00">CLEAR_DONE &#160;&#160;</text>
</g>
<!-- clearance_timeout -->
<g id="node7" class="node state regular">
<title>clearance_timeout</title>
<polygon fill="#ffffff" fill-opacity="0.003922" stroke="none" stroke-width="2" points="219,-82 98,-82 98,-46 219,-46 219,-82"/>
<text text-anchor="start" x="109.5" y="-60.4" font-family="Helvetica,sans-Serif" font-size="12.00">clearance_timeout</text>
<path fill="none" stroke="black" stroke-width="2" d="M110,-47.5C110,-47.5 207,-47.5 207,-47.5 212.5,-47.5 218,-53 218,-58.5 218,-58.5 218,-69.5 218,-69.5 218,-75 212.5,-80.5 207,-80.5 207,-80.5 110,-80.5 110,-80.5 104.5,-80.5 99,-75 99,-69.5 99,-69.5 99,-58.5 99,-58.5 99,-53 104.5,-47.5 110,-47.5"/>
</g>
<!-- awaiting_clearance&#45;&gt;clearance_timeout -->
<g id="edge8" class="edge transition">
<title>awaiting_clearance&#45;&gt;clearance_timeout</title>
<path fill="none" stroke="black" d="M158.5,-108.68C158.5,-103.62 158.5,-97.95 158.5,-92.42"/>
<polygon fill="black" stroke="black" points="162,-92.15 158.5,-82.15 155,-92.15 162,-92.15"/>
<text text-anchor="start" x="158.5" y="-93" font-family="Helvetica,sans-Serif" font-size="10.00">TIMEOUT_CLEARANCE &#160;&#160;</text>
</g>
<!-- final -->
<g id="node8" class="node state final">
<title>final</title>
<ellipse fill="black" stroke="black" stroke-width="2" cx="158.5" cy="-9.5" rx="5.5" ry="5.5"/>
<ellipse fill="none" stroke="black" stroke-width="2" cx="158.5" cy="-9.5" rx="9.5" ry="9.5"/>
</g>
<!-- clearance_timeout&#45;&gt;final -->
<g id="edge9" class="edge transition">
<title>clearance_timeout&#45;&gt;final</title>
<path fill="none" stroke="black" d="M158.5,-45.81C158.5,-40.48 158.5,-34.59 158.5,-29.17"/>
<polygon fill="black" stroke="black" points="162,-29.03 158.5,-19.03 155,-29.03 162,-29.03"/>
<text text-anchor="middle" x="160.5" y="-30" font-family="Helvetica,sans-Serif" font-size="10.00"> </text>
</g>
</g>
</svg>
